<svg width="47" height="51" viewBox="0 0 47 51" fill="none" xmlns="http://www.w3.org/2000/svg">
<g clip-path="url(#clip0_237_37)">
<path d="M10.2824 39.9825C9.54774 39.1853 8.57102 38.7464 7.53224 38.7464C6.91858 38.7464 6.32704 38.9008 5.79379 39.1904C0.55374 31.1346 0.535564 20.0954 5.83813 12.02C6.13225 11.572 6.03604 10.95 5.62314 10.6308C5.21024 10.3115 4.63706 10.4159 4.34285 10.8639C1.41792 15.3184 -0.0825977 20.5786 0.00350795 26.0757C0.0854827 31.3071 1.59922 36.2697 4.3881 40.4825C3.27993 42.132 3.41111 44.4631 4.7821 45.9509C5.54034 46.7736 6.53625 47.185 7.53224 47.185C8.52824 47.185 9.52415 46.7736 10.2824 45.9509C11.7988 44.3054 11.7988 41.6281 10.2824 39.9825ZM8.98411 44.5421C8.18336 45.4108 6.88085 45.4108 6.08029 44.5421C5.27964 43.6733 5.27964 42.2598 6.08029 41.3911C6.46813 40.9702 6.98376 40.7385 7.53215 40.7385C8.08055 40.7385 8.59626 40.9702 8.98401 41.3911C9.78476 42.2599 9.78476 43.6734 8.98411 44.5421Z" fill="#09606B"/>
<path d="M37.4497 44.9381C37.1531 44.4923 36.5794 44.3919 36.1682 44.7141C33.5439 46.7718 30.5938 48.1349 27.3998 48.7657C26.6598 48.912 25.905 48.6967 25.3292 48.1754C24.7575 47.6578 24.4297 46.8974 24.4297 46.0892V38.7881H24.5098C25.5727 38.7881 26.4375 37.8497 26.4375 36.6963V35.0145C29.547 33.7266 31.7618 30.4568 31.7618 26.6358V21.9198C33.2412 21.4813 34.3321 20.011 34.3321 18.2686C34.3321 16.3504 33.0099 14.7619 31.3028 14.5172V8.30762C31.3028 6.65988 30.0674 5.31934 28.5489 5.31934C27.0304 5.31934 25.7949 6.65988 25.7949 8.30762V14.4834H21.2051V8.30762C21.2051 6.65988 19.9697 5.31934 18.4512 5.31934C16.9327 5.31934 15.6973 6.65988 15.6973 8.30762V14.5172C13.9901 14.7619 12.668 16.3503 12.668 18.2686C12.668 20.011 13.7589 21.4813 15.2383 21.9198V26.6358C15.2383 30.4568 17.4531 33.7266 20.5625 35.0145V36.6964C20.5625 37.8498 21.4273 38.7882 22.4903 38.7882H22.5937V46.0893C22.5937 47.49 23.162 48.8079 24.1529 49.7051C24.9437 50.4211 25.9292 50.8031 26.9416 50.8031C27.2031 50.8031 27.4664 50.7776 27.7286 50.7258C31.1941 50.0412 34.3953 48.5619 37.2432 46.3289C37.6542 46.0067 37.7466 45.384 37.4497 44.9381ZM27.631 8.30762C27.631 7.75838 28.0428 7.31153 28.549 7.31153C29.0551 7.31153 29.4669 7.75838 29.4669 8.30762V14.4834H27.631V8.30762ZM17.5333 8.30762C17.5333 7.75838 17.9451 7.31153 18.4513 7.31153C18.9574 7.31153 19.3692 7.75838 19.3692 8.30762V14.4834H17.5333V8.30762ZM14.504 18.2686C14.504 17.28 15.2453 16.4756 16.1563 16.4756H30.8439C31.755 16.4756 32.4962 17.28 32.4962 18.2686C32.4962 19.2572 31.755 20.0616 30.8439 20.0616H16.1563C15.2453 20.0616 14.504 19.2572 14.504 18.2686ZM17.0743 26.6358V22.0537H29.9259V26.6358C29.9259 30.4805 27.0433 33.6085 23.5001 33.6085C19.9569 33.6085 17.0743 30.4805 17.0743 26.6358ZM23.5349 36.796C23.5272 36.7958 23.5196 36.7947 23.5119 36.7947C23.5042 36.7947 23.4965 36.7958 23.4888 36.796H22.4905C22.4397 36.796 22.3985 36.7512 22.3985 36.6964V35.5208C22.759 35.5732 23.1267 35.6006 23.5001 35.6006C23.8735 35.6006 24.2412 35.5732 24.6017 35.5208V36.6964C24.6017 36.7512 24.5606 36.796 24.5099 36.796H23.5349Z" fill="#09606B"/>
<path d="M40.0944 42.2386C39.7306 41.87 39.1638 41.8843 38.8158 42.2659C38.8088 42.2736 38.8017 42.2816 38.795 42.2893C38.449 42.6915 38.4691 43.3217 38.8397 43.6972C39.0167 43.8764 39.2415 43.965 39.4659 43.965C39.703 43.965 39.9395 43.8659 40.1183 43.6699C40.1253 43.6621 40.1324 43.6541 40.1391 43.6465C40.4851 43.2442 40.465 42.614 40.0944 42.2386Z" fill="#09606B"/>
<path d="M46.9377 23.778C46.5288 17.6801 44.1065 11.9378 40.1175 7.60905C36.1966 3.35423 30.9591 0.749836 25.3696 0.275794C19.8483 -0.19267 14.3533 1.43316 9.89485 4.85335C9.48085 5.17091 9.38253 5.79257 9.67518 6.24171C9.96774 6.69085 10.5407 6.79773 10.9546 6.48008C19.4801 -0.0599898 31.4593 1.03083 38.8193 9.01773C46.4253 17.2715 47.345 30.0887 41.006 39.4943C40.7067 39.9383 40.7958 40.5615 41.2051 40.8863C41.3685 41.016 41.5582 41.0785 41.7463 41.0785C42.0291 41.0785 42.3082 40.9371 42.488 40.6703C45.7622 35.8119 47.3426 29.8128 46.9377 23.778Z" fill="#09606B"/>
<path d="M8.06982 7.72419C7.7097 7.337 7.12844 7.3396 6.77153 7.73046L6.75657 7.747C6.39966 8.13767 6.40232 8.76839 6.76235 9.15568C6.94136 9.34812 7.17498 9.44425 7.4086 9.44425C7.6448 9.44425 7.88108 9.34583 8.06064 9.1494L8.0756 9.13287C8.43251 8.7422 8.42985 8.11147 8.06982 7.72419Z" fill="#09606B"/>
<path d="M25.5699 26.2669C25.4054 25.9607 25.1034 25.7724 24.7768 25.7724H24.1208L25.3291 24.1163C25.6437 23.685 25.5765 23.0585 25.1791 22.7171C24.7816 22.3756 24.2042 22.4486 23.8895 22.8798L21.5035 26.1503C21.285 26.4498 21.2436 26.8585 21.3969 27.2023C21.5502 27.5462 21.8712 27.7646 22.2233 27.7646H23.2018L22.0777 29.9184C21.8278 30.3971 21.983 31.0049 22.424 31.276C22.567 31.3638 22.7222 31.4056 22.8756 31.4056C23.1957 31.4055 23.5064 31.2237 23.6753 30.9001L25.5756 27.2594C25.7366 26.951 25.7344 26.5731 25.5699 26.2669Z" fill="#09606B"/>
</g>
<defs>
<clipPath id="clip0_237_37">
<rect width="47" height="51" fill="white"/>
</clipPath>
</defs>
</svg>
