<svg width="48" height="49" viewBox="0 0 48 49" fill="none" xmlns="http://www.w3.org/2000/svg">
<g clip-path="url(#clip0_47_624)">
<path d="M46.5938 29.9444V27.81C46.5938 27.4135 46.2789 27.0922 45.8906 27.0922C45.5023 27.0922 45.1875 27.4135 45.1875 27.81V29.9438H38.4375V23.5535C38.4375 22.5915 37.6708 21.8088 36.7284 21.8088H33.6384V14.9182H39.5813C42.6726 14.9182 45.1875 17.4855 45.1875 20.6412V24.4604C45.1875 24.8568 45.5023 25.1782 45.8906 25.1782C46.2789 25.1782 46.5938 24.8568 46.5938 24.4604V20.6412C46.5938 16.694 43.448 13.4827 39.5813 13.4827H33.4603C32.9966 12.0536 31.6762 11.0194 30.1228 11.0194H27.7913V8.301C28.7477 8.25794 29.5401 7.56189 29.751 6.63988H36.7969C38.1177 6.64582 39.2344 5.50207 39.2344 4.1516C39.2344 2.7796 38.1409 1.66332 36.7969 1.66332H29.7509C29.533 0.711361 28.6953 0 27.6973 0H23.1152C22.1172 0 21.2795 0.711361 21.0616 1.66332H14.0156C12.6815 1.65605 11.5781 2.79424 11.5781 4.1516C11.5781 5.5236 12.6716 6.63988 14.0156 6.63988H21.0615C21.2724 7.56189 22.0648 8.25794 23.0212 8.301V11.0194H20.6897C19.1362 11.0194 17.8159 12.0536 17.3522 13.4827H12.0666C11.7763 12.6473 10.9948 12.0472 10.0782 12.0472C9.16162 12.0472 8.38013 12.6473 8.08988 13.4827H0.703125C0.314812 13.4827 0 13.804 0 14.2004C0 14.5968 0.314812 14.9182 0.703125 14.9182H7.96875V21.8088H0.703125C0.314812 21.8088 0 22.1302 0 22.5266C0 22.923 0.314812 23.2444 0.703125 23.2444H8.08969C8.37994 24.0799 9.16144 24.68 10.0781 24.68C10.9948 24.68 11.7764 24.0799 12.0666 23.2444H17.352C17.8156 24.6736 19.1361 25.708 20.6896 25.708H21.8784C22.2668 25.708 22.5816 25.3867 22.5816 24.9902C22.5816 24.5938 22.2668 24.2724 21.8784 24.2724H20.6897C19.6369 24.2724 18.7619 23.481 18.6053 22.4503C18.6051 22.4476 18.6045 22.4452 18.6042 22.4426C18.6328 22.3106 18.5757 14.5348 18.6044 14.283C18.6046 14.2815 18.6049 14.2801 18.6051 14.2785C18.761 13.2471 19.6364 12.4549 20.6897 12.4549H30.1228C31.1762 12.4549 32.0515 13.2471 32.2074 14.2785C32.2076 14.2801 32.2079 14.2815 32.2081 14.283C32.3169 15.2381 32.3031 21.6056 32.2083 22.4426C32.208 22.4452 32.2073 22.4477 32.2072 22.4503C32.0506 23.481 31.1756 24.2724 30.1228 24.2724H25.1598C24.7715 24.2724 24.4567 24.5938 24.4567 24.9902C24.4567 25.3867 24.7715 25.708 25.1598 25.708H30.1228C31.6763 25.708 32.9968 24.6736 33.4604 23.2444H36.7284C36.8954 23.2444 37.0312 23.383 37.0312 23.5535V29.9444C36.2548 29.9506 35.625 30.5968 35.625 31.3907V32.8034C35.625 33.6013 36.2609 34.2504 37.0425 34.2504H46.5825C47.3641 34.2504 48 33.6013 48 32.8034V31.3907C48 30.5968 47.3702 29.9506 46.5938 29.9444ZM29.8067 3.09887H36.7969C37.3655 3.09887 37.8281 3.57116 37.8281 4.1516C37.8281 4.72123 37.3573 5.20721 36.7969 5.20434H29.8067V3.09887ZM21.0058 5.20434H14.0156C13.447 5.20434 12.9844 4.73204 12.9844 4.1516C12.9844 3.57872 13.4536 3.09628 14.0156 3.09887H21.0058V5.20434ZM10.7812 22.5267C10.7812 22.9225 10.4659 23.2445 10.0781 23.2445C9.69038 23.2445 9.375 22.9225 9.375 22.5267V14.2005C9.375 13.8047 9.69038 13.4828 10.0781 13.4828C10.4659 13.4828 10.7812 13.8047 10.7812 14.2005V22.5267ZM17.1741 21.8088H12.1875V14.9182H17.1741V21.8088ZM26.3851 11.0194H24.4274V8.30349H26.3851V11.0194ZM23.1152 6.86794C22.7274 6.86794 22.4121 6.546 22.4121 6.15017V2.15332C22.4121 1.75749 22.7274 1.43555 23.1152 1.43555H27.6973C28.0851 1.43555 28.4004 1.75749 28.4004 2.15332V6.15017C28.4004 6.546 28.0851 6.86794 27.6973 6.86794H23.1152ZM46.5938 32.8034C46.5938 32.8097 46.5887 32.8149 46.5825 32.8149H37.0425C37.0363 32.8149 37.0312 32.8097 37.0312 32.8034V31.3907C37.0312 31.3845 37.0363 31.3793 37.0425 31.3793H46.5825C46.5887 31.3793 46.5938 31.3845 46.5938 31.3907V32.8034ZM42.5042 36.7339C42.1227 36.3491 41.5022 36.3491 41.1209 36.7337C39.7934 38.0723 36.7057 41.4394 36.7057 43.7887C36.7057 46.6622 38.9966 49 41.8125 49C44.6284 49 46.9193 46.6622 46.9193 43.7887C46.9193 41.4394 43.8316 38.0723 42.5042 36.7339ZM41.8125 47.5645C39.772 47.5645 38.112 45.8707 38.112 43.7887C38.112 42.8963 39.0884 40.8749 41.8125 38.0579C44.5369 40.875 45.513 42.8962 45.513 43.7887C45.513 45.8707 43.853 47.5645 41.8125 47.5645Z" fill="#09606B"/>
</g>
<defs>
<clipPath id="clip0_47_624">
<rect width="48" height="49" fill="white"/>
</clipPath>
</defs>
</svg>
