<svg width="47" height="51" viewBox="0 0 47 51" fill="none" xmlns="http://www.w3.org/2000/svg">
<g clip-path="url(#clip0_230_63)">
<path d="M0 0V51H47V0H0ZM44.2461 48.0117H2.75391V2.98828H44.2461V48.0117Z" fill="#09606B"/>
<path d="M41.4692 6.00146H5.53076V44.9985H41.4692V6.00146ZM33.9912 12.0029H13.0088L10.232 8.98975H36.768L33.9912 12.0029ZM16.5923 20.1174V30.8826L13.8154 33.8958V17.1042L16.5923 20.1174ZM27.6538 20.9927V30.0073H19.3462V20.9927H27.6538ZM18.5396 32.9956H28.4604L31.2373 36.0088H15.7627L18.5396 32.9956ZM30.4077 30.8826V20.1174L33.1846 17.1042V33.8958L30.4077 30.8826ZM28.4604 18.0044H18.5396L15.7627 14.9912H31.2373L28.4604 18.0044ZM11.0615 14.1159V36.8841L8.28467 39.8972V11.1028L11.0615 14.1159ZM13.0088 38.9971H33.9912L36.768 42.0103H10.232L13.0088 38.9971ZM35.9385 36.8841V14.1159L38.7153 11.1028V39.8972L35.9385 36.8841Z" fill="#09606B"/>
<path d="M22.123 23.9995H24.877V27.0001H22.123V23.9995Z" fill="#09606B"/>
</g>
<defs>
<clipPath id="clip0_230_63">
<rect width="47" height="51" fill="white"/>
</clipPath>
</defs>
</svg>
